# xmcd
#
# Track frame offsets: 
#        150
#        31497
#        52631
#        70280
#        93312
#        127861
#        151243
#        183486
#        213674
#        231040
#
# Disc length: 3891 seconds
#
# Revision: 0
# Processed by: cddbd v1.5.2PL0 Copyright (c) Steve Scherf et al.
# Submitted via: ExactAudioCopy v1.0b3
#
DISCID=7c0f310a
DTITLE=The Nudge - Big Nudge Pie
DYEAR=2011
DGENRE=R&B
TTITLE0=Shook Me
TTITLE1=Moving In You
TTITLE2=It All Becomes Clear
TTITLE3=Come Home
TTITLE4=Leif
TTITLE5=The Burden of Relief
TTITLE6=Yesterday's Blues
TTITLE7=Golden Egg
TTITLE8=In My Old's House
TTITLE9=Raising the Greyscale
EXTD=
EXTT0=
EXTT1=
EXTT2=
EXTT3=
EXTT4=
EXTT5=
EXTT6=
EXTT7=
EXTT8=
EXTT9=
PLAYORDER=
